<svg width="66" height="66" viewBox="0 0 66 66" fill="none" xmlns="http://www.w3.org/2000/svg">
<path d="M38.8332 33.0003L32.9998 38.8337L27.1665 33.0003L32.9998 27.167L38.8332 33.0003ZM32.9998 15.5003L39.1832 21.6837L46.4748 14.392L32.9998 0.916992L19.5248 14.392L26.8165 21.6837L32.9998 15.5003ZM15.4998 33.0003L21.6832 26.817L14.3915 19.5253L0.916504 33.0003L14.3915 46.4753L21.6832 39.1837L15.4998 33.0003ZM50.4998 33.0003L44.3165 39.1837L51.6082 46.4753L65.0832 33.0003L51.6082 19.5253L44.3165 26.817L50.4998 33.0003ZM32.9998 50.5003L26.8165 44.317L19.5248 51.6087L32.9998 65.0837L46.4748 51.6087L39.1832 44.317L32.9998 50.5003Z" fill="black"/>
</svg>
